<?xml version="1.0" encoding="utf-8"?>
<!-- Generator: Adobe Illustrator 21.0.0, SVG Export Plug-In . SVG Version: 6.00 Build 0)  -->
<svg version="1.1" id="Layer_1" xmlns="http://www.w3.org/2000/svg" xmlns:xlink="http://www.w3.org/1999/xlink" x="0px" y="0px"
	 viewBox="0 0 60.8 22" style="enable-background:new 0 0 60.8 22;" xml:space="preserve">
<style type="text/css">
	.st0{fill:#4A62AC;}
	.st1{fill:#FFFFFF;}
	.st2{font-family:'Helvetica-Bold';}
	.st3{font-size:11.8462px;}
</style>
<g>
	<g>
		<g>
			<rect y="0.5" class="st0" width="60.3" height="21"/>
			<text transform="matrix(1 0 0 1 21.5353 15.3045)" class="st1 st2 st3">Share</text>
			<path class="st1" d="M17.5,15.3c0,0.8-0.3,1.4-0.8,1.9S15.5,18,14.8,18h-1.8v-5.8h1.9l0.3-2.1h-2.2V8.8c0-0.3,0.1-0.6,0.3-0.8
				c0.2-0.2,0.5-0.3,0.9-0.3h1.2v-2c-0.6-0.1-1.2-0.1-1.7-0.1c-0.9,0-1.6,0.3-2,0.8c-0.5,0.5-0.8,1.2-0.8,2.2v1.6H8.7v2.1h2.1v5.8
				H5.7C5,18,4.3,17.7,3.8,17.2S3,16,3,15.3v-9c0-0.8,0.3-1.4,0.8-1.9S5,3.5,5.7,3.5h9.1c0.7,0,1.3,0.3,1.9,0.8s0.8,1.2,0.8,1.9
				V15.3L17.5,15.3z"/>
		</g>
	</g>
</g>
</svg>
