<svg xmlns="http://www.w3.org/2000/svg" viewBox="0 0 302 302"><defs><style>.cls-1{fill:#ee4036;}.cls-2{fill:none;stroke:#ee4036;stroke-miterlimit:10;stroke-width:2px;}</style></defs><title>mission</title><g id="Layer_2" data-name="Layer 2"><g id="pages"><path class="cls-1" d="M225.12,39.49a2.33,2.33,0,0,0-1,.58L203.18,58.68a2.33,2.33,0,0,0-.8,1.74V82.66L198,87a91.07,91.07,0,1,0,3.27,3.34L205.65,86H228a2.33,2.33,0,0,0,1.74-.8l18.61-20.93a2.33,2.33,0,0,0-1.74-3.85H228V41.81a2.33,2.33,0,0,0-2.83-2.33ZM223.31,47V62.75a2.33,2.33,0,0,0,2.33,2.33h15.7L226.87,81.35H207V61.44ZM137.26,67.4a83.53,83.53,0,0,1,57.49,22.89L175,110.06a54.51,54.51,0,1,0,3.34,3.27L198,93.63A83.65,83.65,0,1,1,137.26,67.4Zm0,32.56a51.09,51.09,0,0,1,34.45,13.3l-18.17,18.17a25.79,25.79,0,1,0,3.34,3.34L175,116.6A51.19,51.19,0,1,1,137.26,100Zm0,30.23a20.79,20.79,0,0,1,13,4.58l-14.68,14.68a2.34,2.34,0,0,0,3.34,3.27L153.61,138a20.94,20.94,0,1,1-16.35-7.85Z"/><rect class="cls-2" x="1" y="1" width="300" height="300"/></g></g></svg>