<svg xmlns="http://www.w3.org/2000/svg" viewBox="0 0 194 194.01"><defs><style>.cls-1{fill:#ee4036;}</style></defs><title>space-x</title><g id="Layer_2" data-name="Layer 2"><g id="pages"><path class="cls-1" d="M45.57,92.38A160.78,160.78,0,0,0,35.5,110.84a2.43,2.43,0,0,0,.51,2.68L80.48,158a2.43,2.43,0,0,0,2.68.51,161.18,161.18,0,0,0,18.46-10.07,2.43,2.43,0,1,0-2.55-4.13,179,179,0,0,1-16.36,9.06L40.64,111.29A178.24,178.24,0,0,1,49.7,94.93a2.43,2.43,0,0,0-4.13-2.55Z"/><path class="cls-1" d="M66.94,152.19a2.42,2.42,0,0,0-2.77-.5,15.54,15.54,0,0,1-14-.62,2.43,2.43,0,0,0-2.32,4.26,20.55,20.55,0,0,0,16.75,1.41l3.07,3.14C54.4,174.69,31.87,173.23,23.39,172c2-4.57,1.56-9.92,1.11-15.52-.81-10-1.64-20.36,9.62-30.18l3.4,3.4a24.31,24.31,0,0,0,1,15.28s1.72,4.76-.29,8.15c-1.16,2-3.46,3.23-6.84,3.74a2.43,2.43,0,1,0,.73,4.8c4.91-.75,8.38-2.8,10.31-6.11,3.17-5.41.74-12,.59-12.39a20.12,20.12,0,0,1-.44-13.54,2.42,2.42,0,0,0-.62-2.38L36,121.35a2.43,2.43,0,0,0-3.22-.19c-15,11.84-14,25.1-13.11,35.76.5,6.28.94,11.7-2.06,15.39a2.42,2.42,0,0,0,1.34,3.9,71.68,71.68,0,0,0,14.8,1.47c11.93,0,28.42-2.84,39.13-16.4a2.43,2.43,0,0,0-.17-3.2Z"/><path class="cls-1" d="M158.14,68.9A23.36,23.36,0,0,0,141.62,29h0A23.36,23.36,0,1,0,158.14,68.9Zm-35-16.51a18.52,18.52,0,0,1,18.51-18.51h0a18.51,18.51,0,1,1-18.52,18.51Z"/><path class="cls-1" d="M194,2.7A2.43,2.43,0,0,0,191.3,0l-7.86.89c-4.83-.73-50.37-6-98.88,42.48q-2.6,2.61-5,5.19H50a2.43,2.43,0,0,0-1.86.86L.57,105.81a2.43,2.43,0,0,0,.14,3.28l6.72,6.72a2.43,2.43,0,0,0,2.92.39L37.7,100.62a2.43,2.43,0,1,0-2.4-4.22L9.55,111.07l-3.84-3.84L51.1,53.43H80.55a2.43,2.43,0,0,0,1.76-.76C84.15,50.73,86,48.78,88,46.82c25.28-25.28,49.76-35.09,65.84-38.88,17.42-4.1,29-2.21,29.15-2.19a2.29,2.29,0,0,0,.68,0l5.16-.58-.58,5.16a2.38,2.38,0,0,0,0,.68c0,.12,1.91,11.73-2.19,29.15-3.79,16.08-13.6,40.56-38.88,65.84-2,2-3.92,3.85-5.86,5.68a2.43,2.43,0,0,0-.76,1.77v29.45l-53.8,45.38L83,184.52,99,159.23a2.43,2.43,0,1,0-4.1-2.6L77.85,183.56a2.43,2.43,0,0,0,.33,3l6.72,6.72a2.43,2.43,0,0,0,3.28.14l56.37-47.55a2.42,2.42,0,0,0,.86-1.86V114.5q2.58-2.45,5.19-5.06c48.52-48.52,43.21-94.05,42.48-98.89Z"/><path class="cls-1" d="M84.41,105.22l-20,20a2.43,2.43,0,1,0,3.43,3.43l20-20a2.43,2.43,0,1,0-3.43-3.43Z"/><path class="cls-1" d="M74.4,95.21l-20,20a2.43,2.43,0,1,0,3.43,3.43l20-20a2.43,2.43,0,0,0-3.43-3.43Z"/><path class="cls-1" d="M74.22,138.51a2.43,2.43,0,0,0,3.43,0l20-20a2.43,2.43,0,0,0-3.43-3.43l-20,20A2.42,2.42,0,0,0,74.22,138.51Z"/><path class="cls-1" d="M73.79,61.44H51.54a2.43,2.43,0,0,0,0,4.85H73.79a2.43,2.43,0,0,0,0-4.85Z"/><path class="cls-1" d="M127.71,120.22v22.24a2.43,2.43,0,0,0,4.85,0V120.22a2.43,2.43,0,0,0-4.85,0Z"/></g></g></svg>