<svg xmlns="http://www.w3.org/2000/svg" viewBox="0 0 98.36 30"><defs><style>.cls-1{fill:#e6e6e6;}</style></defs><title>white-logo</title><g id="Layer_2" data-name="Layer 2"><g id="pages"><path class="cls-1" d="M7.28,24.32a1.35,1.35,0,0,1-.51-.21L1.08,18.59.49,18a2.11,2.11,0,0,1-.33-.49A1.44,1.44,0,0,1,0,16.85v-.79a1.42,1.42,0,0,1,.17-.67,2.14,2.14,0,0,1,.31-.47l.62-.59L6.77,8.66a.79.79,0,0,1,.49-.16.62.62,0,0,1,.48.2.71.71,0,0,1,.19.49v.91a1.73,1.73,0,0,1,0,.27c0,.08,0,.15,0,.21a.68.68,0,0,1-.1.21,1.2,1.2,0,0,0-.1.17.79.79,0,0,1-.15.18l-.15.15-.2.18-.2.18L2.6,16.17a.33.33,0,0,0,0,.58L7,21.13l.2.17.19.17.16.15.15.16.11.16a.61.61,0,0,1,.09.19q0,.09,0,.21a1.73,1.73,0,0,1,0,.27v1a.68.68,0,0,1-.19.48A.6.6,0,0,1,7.28,24.32Z"/><path class="cls-1" d="M12.8,30q-.18,0-.18-.42a.37.37,0,0,1,0-.06.44.44,0,0,0,0-.08L17.22.57q.1-.57.35-.57h2.68q.2,0,.2.41a.48.48,0,0,1,0,.16l-4.6,28.87q-.1.57-.31.57Z"/><path class="cls-1" d="M24.79,26.66a.49.49,0,0,1-.39-.14,1.07,1.07,0,0,1-.12-.62V4.14a1.07,1.07,0,0,1,.12-.62.49.49,0,0,1,.39-.14h2.84a.49.49,0,0,1,.39.14,1.07,1.07,0,0,1,.12.62v8.61a.49.49,0,0,0,.07.26q.07.11.13.11H34.2s.08,0,.14-.12a.48.48,0,0,0,.08-.27V4.14a1,1,0,0,1,.13-.62.48.48,0,0,1,.38-.15H37.8a.46.46,0,0,1,.37.14,1.07,1.07,0,0,1,.12.62V25.9a1.07,1.07,0,0,1-.12.62.46.46,0,0,1-.37.14H34.92a.74.74,0,0,1-.27,0,.39.39,0,0,1-.18-.22,1.28,1.28,0,0,1-.08-.5V16q0-.34-.22-.34H28.37q-.2,0-.2.34V25.9a1,1,0,0,1-.13.62.48.48,0,0,1-.38.15Z"/><path class="cls-1" d="M45.62,26.66a.44.44,0,0,1-.36-.15,1,1,0,0,1-.13-.62V6.4q0-.4-.22-.4h-3.4a1.18,1.18,0,0,1-.28,0,.28.28,0,0,1-.16-.16A1,1,0,0,1,41,5.38V4.1a1,1,0,0,1,.12-.57.49.49,0,0,1,.39-.14H52.57a.46.46,0,0,1,.37.14,1,1,0,0,1,.12.57V5.38a.78.78,0,0,1-.11.51.54.54,0,0,1-.38.11H49.22Q49,6,49,6.4V25.89a1,1,0,0,1-.13.63.48.48,0,0,1-.38.15Z"/><path class="cls-1" d="M55.87,26.66q-.47,0-.47-.79v-.08l.88-21.48q0-.89.49-.92h3.09a.88.88,0,0,1,.49.16,1,1,0,0,1,.29.6L64,19.46a.17.17,0,0,0,.07.1.08.08,0,0,0,.1,0,.11.11,0,0,0,0-.1L67.49,4.19q.18-.78.76-.81h3.13q.47,0,.47.92l.92,21.48v.1q0,.78-.49.78H70.13q-.47,0-.51-.87L69,9.16c0-.06,0-.1-.06-.11s-.07,0-.08,0L65.32,25.89q-.16.78-.67.78H63.39q-.47,0-.67-.78L59.26,9.18q0-.1-.08,0a.19.19,0,0,0,0,.1l-.63,16.55q0,.87-.45.87Z"/><path class="cls-1" d="M77.43,26.66a.46.46,0,0,1-.37-.14,1.07,1.07,0,0,1-.12-.62V4.14a1.07,1.07,0,0,1,.12-.62.46.46,0,0,1,.37-.14h2.88a.46.46,0,0,1,.37.14,1.07,1.07,0,0,1,.12.62V23.73q0,.36.27.36h5.09a.52.52,0,0,1,.37.11.77.77,0,0,1,.12.52V26a.8.8,0,0,1-.12.53.5.5,0,0,1-.37.12Z"/><path class="cls-1" d="M91.09,24.32a.59.59,0,0,1-.47-.2.75.75,0,0,1-.18-.51v-.89q0-.11,0-.22a1.26,1.26,0,0,1,0-.19,1,1,0,0,1,.06-.17l.07-.15.1-.15.1-.13.12-.14.13-.13.16-.14.16-.15,4.4-4.52a.42.42,0,0,0,.16-.31.33.33,0,0,0-.18-.28l-4.36-4.37-.23-.2-.22-.19-.17-.17a.63.63,0,0,1-.15-.19l-.09-.19a.87.87,0,0,1-.08-.25,2,2,0,0,1,0-.29v-1a.67.67,0,0,1,.18-.48.62.62,0,0,1,.47-.19,1,1,0,0,1,.49.19l5.69,5.54.61.58a2.18,2.18,0,0,1,.32.47,1.38,1.38,0,0,1,.17.66v.79q0,.13,0,.23a.73.73,0,0,1-.06.22,1.4,1.4,0,0,0-.07.19.53.53,0,0,1-.12.19.74.74,0,0,0-.12.16.84.84,0,0,1-.16.19l-.17.17-.21.19-.22.19-5.65,5.67A1,1,0,0,1,91.09,24.32Z"/></g></g></svg>