<?xml version="1.0" encoding="utf-8"?>
<!-- Generator: Adobe Illustrator 17.1.0, SVG Export Plug-In . SVG Version: 6.00 Build 0)  -->
<!DOCTYPE svg PUBLIC "-//W3C//DTD SVG 1.1//EN" "http://www.w3.org/Graphics/SVG/1.1/DTD/svg11.dtd">
<svg version="1.1" id="Layer_1" xmlns="http://www.w3.org/2000/svg" xmlns:xlink="http://www.w3.org/1999/xlink" x="0px" y="0px"
	 viewBox="0 0 100.181 30.574" style="enable-background:new 0 0 100.181 30.574;" xml:space="preserve">
<style type="text/css">
	.st0{fill:#EE4036;}
</style>
<g>
	<g>
		<path class="st0" d="M7.44,24.765c-0.102,0-0.255-0.051-0.51-0.204l-5.809-5.605c-0.306-0.255-0.51-0.459-0.611-0.611
			c-0.102-0.102-0.255-0.306-0.357-0.51C0.051,17.631,0,17.427,0,17.172v-0.815c0-0.255,0.051-0.459,0.153-0.662
			c0.153-0.204,0.255-0.408,0.357-0.51c0.102-0.102,0.306-0.306,0.611-0.611l5.758-5.758c0.153-0.102,0.306-0.153,0.51-0.153
			s0.357,0.051,0.51,0.204C8,9.019,8.102,9.172,8.102,9.376v0.917c0,0.102,0,0.204,0,0.255c0,0.102-0.051,0.153-0.051,0.204
			c0,0.051-0.051,0.153-0.102,0.204c-0.051,0.102-0.102,0.153-0.102,0.153c0,0.051-0.051,0.102-0.153,0.204
			c-0.102,0.102-0.153,0.153-0.153,0.153s-0.102,0.051-0.204,0.204c-0.102,0.102-0.204,0.153-0.204,0.204L2.65,16.51
			c-0.102,0.102-0.204,0.204-0.204,0.306s0.051,0.204,0.204,0.306l4.484,4.433c0.051,0.051,0.102,0.102,0.204,0.153
			C7.44,21.81,7.491,21.86,7.542,21.86c0.051,0.051,0.102,0.102,0.153,0.153c0.051,0.051,0.102,0.102,0.153,0.153
			c0.051,0.051,0.051,0.102,0.102,0.153C8,22.37,8,22.472,8.051,22.523c0,0.051,0.051,0.153,0.051,0.204c0,0.102,0,0.153,0,0.255
			v1.019c0,0.204-0.051,0.357-0.204,0.51C7.745,24.714,7.593,24.765,7.44,24.765z"/>
		<path class="st0" d="M13.045,30.574c-0.102,0-0.204-0.153-0.204-0.408v-0.051c0-0.051,0-0.051,0-0.102l4.688-29.402
			C17.631,0.204,17.733,0,17.886,0h2.752c0.153,0,0.204,0.153,0.204,0.408c0,0.102,0,0.153,0,0.153l-4.688,29.402
			c-0.102,0.408-0.204,0.611-0.357,0.611H13.045z"/>
		<path class="st0" d="M25.275,27.16c-0.204,0-0.306-0.051-0.408-0.153c-0.102-0.102-0.102-0.306-0.102-0.611V4.229
			c0-0.306,0.051-0.561,0.102-0.611c0.102-0.102,0.204-0.153,0.408-0.153h2.905c0.204,0,0.306,0.051,0.408,0.153
			c0.102,0.102,0.102,0.306,0.102,0.611v8.765c0,0.102,0,0.204,0.051,0.255c0.051,0.102,0.102,0.102,0.153,0.102h5.962
			c0.051,0,0.102-0.051,0.153-0.102c0.051-0.102,0.102-0.153,0.102-0.255V4.229c0-0.306,0.051-0.51,0.153-0.611
			c0.102-0.102,0.204-0.153,0.408-0.153h2.955c0.153,0,0.306,0.051,0.357,0.153c0.102,0.102,0.102,0.306,0.102,0.611v22.166
			c0,0.306-0.051,0.561-0.102,0.611c-0.102,0.102-0.204,0.153-0.357,0.153H35.67c-0.102,0-0.204,0-0.255-0.051
			c-0.051-0.051-0.102-0.102-0.204-0.204c-0.051-0.102-0.102-0.306-0.102-0.51V16.306c0-0.255-0.051-0.357-0.204-0.357h-6.013
			c-0.153,0-0.204,0.102-0.204,0.357v10.089c0,0.306-0.051,0.51-0.153,0.611c-0.102,0.102-0.204,0.153-0.408,0.153H25.275z"/>
		<path class="st0" d="M46.473,27.16c-0.153,0-0.306-0.051-0.357-0.153c-0.102-0.102-0.153-0.306-0.153-0.611V6.522
			c0-0.255-0.051-0.408-0.204-0.408h-3.465c-0.153,0-0.204,0-0.306,0c-0.051,0-0.102-0.051-0.153-0.153
			c-0.051-0.102-0.051-0.255-0.051-0.459V4.178c0-0.306,0.051-0.51,0.102-0.561c0.102-0.102,0.204-0.153,0.408-0.153h11.261
			c0.153,0,0.306,0.051,0.357,0.153c0.102,0.102,0.102,0.306,0.102,0.561v1.325c0,0.255-0.051,0.459-0.102,0.51
			c-0.051,0.051-0.204,0.102-0.408,0.102h-3.414c-0.153,0-0.204,0.153-0.204,0.408v19.873c0,0.306-0.051,0.561-0.153,0.662
			c-0.102,0.102-0.204,0.153-0.408,0.153h-2.854V27.16z"/>
		<path class="st0" d="M56.919,27.16c-0.306,0-0.459-0.255-0.459-0.815v-0.102l0.917-21.911c0-0.611,0.204-0.917,0.51-0.917h3.159
			c0.204,0,0.357,0.051,0.51,0.153c0.153,0.102,0.255,0.306,0.306,0.611l3.363,15.593c0,0.051,0.051,0.102,0.051,0.102
			c0.051,0,0.051,0,0.102,0c0.051,0,0.051-0.051,0.051-0.102L68.792,4.28c0.102-0.51,0.357-0.815,0.764-0.815h3.21
			c0.306,0,0.459,0.357,0.459,0.917l0.917,21.911v0.102c0,0.51-0.153,0.815-0.51,0.815h-2.191c-0.306,0-0.51-0.306-0.51-0.866
			L70.32,9.325c0-0.051,0-0.102-0.051-0.102c-0.051,0-0.051,0-0.102,0.051L66.55,26.396c-0.102,0.51-0.357,0.815-0.662,0.815h-1.274
			c-0.306,0-0.561-0.255-0.662-0.815l-3.516-17.02c0-0.051-0.051-0.102-0.102-0.051c0,0,0,0.051,0,0.102L59.67,26.294
			c0,0.611-0.153,0.866-0.459,0.866L56.919,27.16L56.919,27.16z"/>
		<path class="st0" d="M78.932,27.16c-0.153,0-0.306-0.051-0.357-0.153c-0.102-0.102-0.102-0.306-0.102-0.611V4.229
			c0-0.306,0.051-0.561,0.102-0.611c0.102-0.102,0.204-0.153,0.357-0.153h2.955c0.153,0,0.306,0.051,0.357,0.153
			c0.102,0.102,0.102,0.306,0.102,0.611v19.975c0,0.255,0.102,0.357,0.255,0.357h5.198c0.153,0,0.306,0.051,0.357,0.102
			c0.102,0.102,0.102,0.255,0.102,0.51v1.325c0,0.255-0.051,0.459-0.102,0.561c-0.102,0.102-0.204,0.102-0.357,0.102H78.932z"/>
		<path class="st0" d="M92.843,24.765c-0.204,0-0.357-0.051-0.459-0.204c-0.102-0.153-0.204-0.306-0.204-0.51v-0.917
			c0-0.102,0-0.153,0-0.204c0-0.051,0-0.153,0.051-0.204c0-0.051,0.051-0.102,0.051-0.153c0.051-0.051,0.051-0.102,0.051-0.153
			c0-0.051,0.051-0.102,0.102-0.153c0.051-0.051,0.102-0.102,0.102-0.153c0-0.051,0.051-0.051,0.102-0.153
			c0.051-0.051,0.102-0.102,0.153-0.153c0.051,0,0.102-0.051,0.153-0.153c0.102-0.051,0.153-0.102,0.153-0.153l4.484-4.586
			c0.102-0.102,0.153-0.204,0.153-0.306s-0.051-0.204-0.204-0.306l-4.433-4.433c-0.051-0.051-0.102-0.102-0.255-0.204
			c-0.102-0.102-0.204-0.153-0.204-0.204c-0.051-0.051-0.102-0.102-0.153-0.153c-0.102-0.102-0.153-0.153-0.153-0.204
			s-0.051-0.102-0.102-0.204c-0.051-0.102-0.051-0.153-0.102-0.255c0-0.102,0-0.204,0-0.306v-1.07c0-0.204,0.051-0.357,0.204-0.51
			c0.102-0.102,0.255-0.204,0.459-0.204c0.153,0,0.306,0.051,0.51,0.204l5.809,5.656c0.306,0.306,0.51,0.51,0.611,0.611
			c0.102,0.102,0.204,0.255,0.306,0.459c0.102,0.204,0.153,0.459,0.153,0.662v0.815c0,0.102,0,0.153,0,0.255
			c0,0.051-0.051,0.153-0.051,0.204c-0.051,0.102-0.051,0.153-0.051,0.204c0,0.051-0.051,0.102-0.102,0.204
			c-0.051,0.102-0.102,0.153-0.102,0.153s-0.051,0.102-0.153,0.204c-0.102,0.102-0.153,0.153-0.153,0.153s-0.102,0.102-0.204,0.204
			c-0.102,0.102-0.204,0.153-0.204,0.204l-5.758,5.758C93.149,24.714,92.996,24.765,92.843,24.765z"/>
	</g>
</g>
</svg>
