<?xml version="1.0" encoding="utf-8"?>
<!-- Generator: Adobe Illustrator 17.1.0, SVG Export Plug-In . SVG Version: 6.00 Build 0)  -->
<!DOCTYPE svg PUBLIC "-//W3C//DTD SVG 1.1//EN" "http://www.w3.org/Graphics/SVG/1.1/DTD/svg11.dtd">
<svg version="1.1" id="Layer_1" xmlns="http://www.w3.org/2000/svg" xmlns:xlink="http://www.w3.org/1999/xlink" x="0px" y="0px"
	 viewBox="0 0 40 39.761" style="enable-background:new 0 0 40 39.761;" xml:space="preserve">
<style type="text/css">
	.st0{fill:#EE4036;}
</style>
<path class="st0" d="M40,36.384l-9.577-9.577c0.758-1.036,1.422-2.162,1.943-3.396c3.623-8.572-0.389-18.459-8.961-22.082
	C21.33,0.448,19.097-0.004,16.843,0l0.004,0.003C7.54,0.005-0.002,7.551,0,16.857c0.002,6.767,4.052,12.877,10.284,15.515
	c5.779,2.442,12.147,1.404,16.799-2.15l9.54,9.54L40,36.384z M4.776,16.85c0-6.666,5.404-12.071,12.071-12.071
	c6.666,0,12.071,5.404,12.071,12.071s-5.404,12.071-12.071,12.071C10.18,28.921,4.776,23.517,4.776,16.85z"/>
</svg>
